<svg xmlns="http://www.w3.org/2000/svg" width="500" height="500" style="width:100%;height:100%;transform:translate3d(0,0,0);content-visibility:visible" viewBox="0 0 500 500"><defs><clipPath id="e"><path d="M0 0h500v500H0z"/></clipPath><clipPath id="i"><path d="M0 0h500v500H0z"/></clipPath><clipPath id="c"><path d="M0 0h500v500H0z"/></clipPath><clipPath id="f"><path d="M0 0h500v500H0z"/></clipPath><clipPath id="d"><path d="M0 0h500v500H0z"/></clipPath><filter id="k" width="300%" height="300%" x="-100%" y="-100%"><feGaussianBlur result="filter_result_0" stdDeviation="52.5 52.5"/></filter><filter id="h" width="300%" height="300%" x="-100%" y="-100%"><feGaussianBlur result="filter_result_0" stdDeviation="52.5 52.5"/></filter><mask id="j" mask-type="alpha"><use xmlns:ns1="http://www.w3.org/1999/xlink" ns1:href="#a"/></mask><mask id="g" mask-type="alpha"><use xmlns:ns2="http://www.w3.org/1999/xlink" ns2:href="#b"/></mask><g id="a" fill-opacity="0" stroke-linecap="round" stroke-linejoin="round" clip-path="url(#c)" style="display:block"><g stroke-width="12.925" style="display:block"><path stroke="#000" d="M348.969 179.734c35.578 32.989 67.538 62.616 67.538 62.616h.121M255.095 91.294l-1.214.29s13.585 12.598 32.91 30.509m97.429 292.432.924-.074V242.292"/><path stroke="#08A88A" d="m350.414 108.487 4.627.085.132 63.07"/></g><path stroke="#08A88A" stroke-width="2.45" d="M-9.926-16.437v-5.792h8.935v14.123" style="display:block" transform="translate(360.09 225.02) scale(5.2756)"/><g stroke-width="12.925" style="display:block"><path stroke="#08A88A" d="M211.096 414.504V276.278h83.64v138.226"/><path stroke="#000" d="M87.97 242.345 252.915 91.58l162.626 150.766"/><path stroke="#000" d="M118.932 218.193v196.31h266.265l-.048-199.997"/></g></g><g id="b" clip-path="url(#d)" style="display:block"><g opacity=".2" style="display:block"><path fill-opacity="0" stroke="#000" stroke-linecap="round" stroke-linejoin="round" stroke-width="12" d="M338.849-9.036c4.826-8.974 11.153-16.609 19.083-22.027" opacity="1"/></g><g opacity=".2" style="display:block"><path fill-opacity="0" stroke="#000" stroke-linecap="round" stroke-linejoin="round" stroke-width="12" d="M233.1 26.834C223.937 28.229 214.202 31.19 204 36c-28.617 13.491-52.184 20.339-66.448 17.103" opacity="1"/></g><g opacity=".2" style="display:block"><path fill-opacity="0" stroke="#000" stroke-linecap="round" stroke-linejoin="round" stroke-width="12" d="M372.386 37.443c11.982-12.351 29.46-19.899 54.291-20.622C458.015 15.909 476.5 35 472.088 63.429c-5.037 32.454-47.945 33.549-65.578 15.277" opacity="1"/></g><path fill-opacity="0" stroke-linecap="round" stroke-linejoin="round" style="display:none"/><path fill-opacity="0" stroke-linecap="round" stroke-linejoin="round" style="display:none"/><path fill-opacity="0" stroke-linecap="round" stroke-linejoin="round" style="display:none"/><g fill-opacity="0" stroke-linecap="round" stroke-linejoin="round" stroke-width="12.925" style="display:block"><path stroke="#000" d="M348.969 179.734c35.578 32.989 67.538 62.616 67.538 62.616h.121M255.095 91.294l-1.214.29s13.585 12.598 32.91 30.509m97.429 292.432.924-.074V242.292"/><path stroke="#08A88A" d="m350.414 108.487 4.627.085.132 63.07"/></g><path fill-opacity="0" stroke="#08A88A" stroke-linecap="round" stroke-linejoin="round" stroke-width="2.45" d="M-9.926-16.437v-5.792h8.935v14.123" style="display:block" transform="translate(360.09 225.02) scale(5.2756)"/><g fill-opacity="0" stroke-linecap="round" stroke-linejoin="round" stroke-width="12.925" style="display:block"><path stroke="#08A88A" d="M211.096 414.504V276.278h83.64v138.226"/><path stroke="#000" d="M87.97 242.345 252.915 91.58l162.626 150.766"/><path stroke="#000" d="M118.932 218.193v196.31h266.265l-.048-199.997"/></g></g></defs><g clip-path="url(#e)"><g clip-path="url(#f)" mask="url(#g)" opacity="0" style="display:block"><g filter="url(#h)" transform="rotate(-94 262.075 8.435) scale(2.4)"><path fill="#4AE0EB" d="M0-250c137.975 0 250 112.025 250 250S137.975 250 0 250-250 137.975-250 0-137.975-250 0-250z" class="design"/><path fill="#CA5EED" d="M113.242-295.384c97.478 0 176.5 79.022 176.5 176.5s-79.022 176.5-176.5 176.5c-43.948 0-74.396-34.057-105.29-60.631-37.631-32.369-71.21-62.338-71.21-115.869 0-97.478 79.022-176.5 176.5-176.5z" class="design"/></g></g><g clip-path="url(#i)" mask="url(#j)" style="display:block"><g filter="url(#k)" transform="rotate(-94 262.075 8.435) scale(2.4)"><path fill="#4AE0EB" d="M0-250c137.975 0 250 112.025 250 250S137.975 250 0 250-250 137.975-250 0-137.975-250 0-250z" class="design"/><path fill="#CA5EED" d="M113.242-295.384c97.478 0 176.5 79.022 176.5 176.5s-79.022 176.5-176.5 176.5c-43.948 0-74.396-34.057-105.29-60.631-37.631-32.369-71.21-62.338-71.21-115.869 0-97.478 79.022-176.5 176.5-176.5z" class="design"/></g></g><path style="display:none"/></g></svg>