<svg id="visual" viewBox="0 0 1920 1080" width="1920" height="1080" xmlns="http://www.w3.org/2000/svg" xmlns:xlink="http://www.w3.org/1999/xlink" version="1.1"><path d="M638 0L741 0L741 60L1356 60L1356 120L1106 120L1106 180L172 180L172 240L760 240L760 300L379 300L379 360L782 360L782 420L532 420L532 480L187 480L187 540L432 540L432 600L1145 600L1145 660L397 660L397 720L686 720L686 780L633 780L633 840L1240 840L1240 900L981 900L981 960L1030 960L1030 1020L573 1020L573 1080L0 1080L0 1020L0 1020L0 960L0 960L0 900L0 900L0 840L0 840L0 780L0 780L0 720L0 720L0 660L0 660L0 600L0 600L0 540L0 540L0 480L0 480L0 420L0 420L0 360L0 360L0 300L0 300L0 240L0 240L0 180L0 180L0 120L0 120L0 60L0 60L0 0L0 0Z" fill="#775cf2"></path><path d="M1116 0L133 0L133 60L985 60L985 120L810 120L810 180L740 180L740 240L259 240L259 300L765 300L765 360L673 360L673 420L216 420L216 480L517 480L517 540L140 540L140 600L185 600L185 660L1000 660L1000 720L500 720L500 780L635 780L635 840L927 840L927 900L187 900L187 960L646 960L646 1020L714 1020L714 1080L0 1080L0 1020L0 1020L0 960L0 960L0 900L0 900L0 840L0 840L0 780L0 780L0 720L0 720L0 660L0 660L0 600L0 600L0 540L0 540L0 480L0 480L0 420L0 420L0 360L0 360L0 300L0 300L0 240L0 240L0 180L0 180L0 120L0 120L0 60L0 60L0 0L0 0Z" fill="#6651cb"></path><path d="M296 0L662 0L662 60L165 60L165 120L260 120L260 180L210 180L210 240L546 240L546 300L894 300L894 360L951 360L951 420L871 420L871 480L710 480L710 540L655 540L655 600L619 600L619 660L351 660L351 720L284 720L284 780L425 780L425 840L550 840L550 900L500 900L500 960L674 960L674 1020L538 1020L538 1080L0 1080L0 1020L0 1020L0 960L0 960L0 900L0 900L0 840L0 840L0 780L0 780L0 720L0 720L0 660L0 660L0 600L0 600L0 540L0 540L0 480L0 480L0 420L0 420L0 360L0 360L0 300L0 300L0 240L0 240L0 180L0 180L0 120L0 120L0 60L0 60L0 0L0 0Z" fill="#5746a5"></path><path d="M710 0L711 0L711 60L377 60L377 120L687 120L687 180L538 180L538 240L534 240L534 300L277 300L277 360L538 360L538 420L511 420L511 480L550 480L550 540L698 540L698 600L523 600L523 660L613 660L613 720L216 720L216 780L240 780L240 840L95 840L95 900L298 900L298 960L227 960L227 1020L128 1020L128 1080L0 1080L0 1020L0 1020L0 960L0 960L0 900L0 900L0 840L0 840L0 780L0 780L0 720L0 720L0 660L0 660L0 600L0 600L0 540L0 540L0 480L0 480L0 420L0 420L0 360L0 360L0 300L0 300L0 240L0 240L0 180L0 180L0 120L0 120L0 60L0 60L0 0L0 0Z" fill="#483a81"></path><path d="M572 0L526 0L526 60L526 60L526 120L197 120L197 180L564 180L564 240L177 240L177 300L402 300L402 360L379 360L379 420L186 420L186 480L241 480L241 540L356 540L356 600L448 600L448 660L269 660L269 720L165 720L165 780L343 780L343 840L275 840L275 900L455 900L455 960L457 960L457 1020L367 1020L367 1080L0 1080L0 1020L0 1020L0 960L0 960L0 900L0 900L0 840L0 840L0 780L0 780L0 720L0 720L0 660L0 660L0 600L0 600L0 540L0 540L0 480L0 480L0 420L0 420L0 360L0 360L0 300L0 300L0 240L0 240L0 180L0 180L0 120L0 120L0 60L0 60L0 0L0 0Z" fill="#392f5f"></path><path d="M78 0L52 0L52 60L131 60L131 120L170 120L170 180L383 180L383 240L49 240L49 300L135 300L135 360L334 360L334 420L193 420L193 480L218 480L218 540L211 540L211 600L184 600L184 660L314 660L314 720L273 720L273 780L329 780L329 840L309 840L309 900L204 900L204 960L243 960L243 1020L365 1020L365 1080L0 1080L0 1020L0 1020L0 960L0 960L0 900L0 900L0 840L0 840L0 780L0 780L0 720L0 720L0 660L0 660L0 600L0 600L0 540L0 540L0 480L0 480L0 420L0 420L0 360L0 360L0 300L0 300L0 240L0 240L0 180L0 180L0 120L0 120L0 60L0 60L0 0L0 0Z" fill="#2a243e"></path></svg>